<?xml version="1.0" encoding="UTF-8" standalone="no"?>
<!-- Created with Inkscape (http://www.inkscape.org/) -->

<svg
   version="1.1"
   id="svg2"
   width="309.33334"
   height="113.33333"
   viewBox="0 0 309.33334 113.33333"
   sodipodi:docname="pipeline.eps"
   xmlns:inkscape="http://www.inkscape.org/namespaces/inkscape"
   xmlns:sodipodi="http://sodipodi.sourceforge.net/DTD/sodipodi-0.dtd"
   xmlns="http://www.w3.org/2000/svg"
   xmlns:svg="http://www.w3.org/2000/svg">
  <defs
     id="defs6" />
  <sodipodi:namedview
     id="namedview4"
     pagecolor="#ffffff"
     bordercolor="#000000"
     borderopacity="0.25"
     inkscape:showpageshadow="2"
     inkscape:pageopacity="0.0"
     inkscape:pagecheckerboard="0"
     inkscape:deskcolor="#d1d1d1" />
  <g
     id="g8"
     inkscape:groupmode="layer"
     inkscape:label="ink_ext_XXXXXX"
     transform="matrix(1.3333333,0,0,-1.3333333,0,113.33333)">
    <g
       id="g10"
       transform="scale(0.1)">
      <path
         d="m 950,169.301 h 1120 v 480 H 950 Z"
         style="fill:#ffffff;fill-opacity:1;fill-rule:evenodd;stroke:none"
         id="path12" />
      <path
         d="m 950,169.301 h 1120 v 480 H 950 Z"
         style="fill:none;stroke:#000000;stroke-width:4;stroke-linecap:butt;stroke-linejoin:round;stroke-miterlimit:10;stroke-dasharray:none;stroke-opacity:1"
         id="path14" />
      <path
         d="M 453.711,133.91 699.02,225.898"
         style="fill:#ffffff;fill-opacity:1;fill-rule:evenodd;stroke:none"
         id="path16" />
      <path
         d="M 453.711,133.91 699.02,225.898"
         style="fill:none;stroke:#000000;stroke-width:4;stroke-linecap:butt;stroke-linejoin:round;stroke-miterlimit:10;stroke-dasharray:none;stroke-opacity:1"
         id="path18" />
      <path
         d="M 453.711,133.91 699.02,409.879"
         style="fill:#ffffff;fill-opacity:1;fill-rule:evenodd;stroke:none"
         id="path20" />
      <path
         d="M 453.711,133.91 699.02,409.879"
         style="fill:none;stroke:#000000;stroke-width:4;stroke-linecap:butt;stroke-linejoin:round;stroke-miterlimit:10;stroke-dasharray:none;stroke-opacity:1"
         id="path22" />
      <path
         d="M 453.711,133.91 699.02,593.871"
         style="fill:#ffffff;fill-opacity:1;fill-rule:evenodd;stroke:none"
         id="path24" />
      <path
         d="M 453.711,133.91 699.02,593.871"
         style="fill:none;stroke:#000000;stroke-width:4;stroke-linecap:butt;stroke-linejoin:round;stroke-miterlimit:10;stroke-dasharray:none;stroke-opacity:1"
         id="path26" />
      <path
         d="M 453.711,685.82 699.02,593.871"
         style="fill:#ffffff;fill-opacity:1;fill-rule:evenodd;stroke:none"
         id="path28" />
      <path
         d="M 453.711,685.82 699.02,593.871"
         style="fill:none;stroke:#000000;stroke-width:4;stroke-linecap:butt;stroke-linejoin:round;stroke-miterlimit:10;stroke-dasharray:none;stroke-opacity:1"
         id="path30" />
      <path
         d="M 453.711,685.82 699.02,409.879"
         style="fill:#ffffff;fill-opacity:1;fill-rule:evenodd;stroke:none"
         id="path32" />
      <path
         d="M 453.711,685.82 699.02,409.879"
         style="fill:none;stroke:#000000;stroke-width:4;stroke-linecap:butt;stroke-linejoin:round;stroke-miterlimit:10;stroke-dasharray:none;stroke-opacity:1"
         id="path34" />
      <path
         d="M 453.711,685.82 699.02,225.898"
         style="fill:#ffffff;fill-opacity:1;fill-rule:evenodd;stroke:none"
         id="path36" />
      <path
         d="M 453.711,685.82 699.02,225.898"
         style="fill:none;stroke:#000000;stroke-width:4;stroke-linecap:butt;stroke-linejoin:round;stroke-miterlimit:10;stroke-dasharray:none;stroke-opacity:1"
         id="path38" />
      <path
         d="M 453.711,317.891 699.02,225.898"
         style="fill:#ffffff;fill-opacity:1;fill-rule:evenodd;stroke:none"
         id="path40" />
      <path
         d="M 453.711,317.891 699.02,225.898"
         style="fill:none;stroke:#000000;stroke-width:4;stroke-linecap:butt;stroke-linejoin:round;stroke-miterlimit:10;stroke-dasharray:none;stroke-opacity:1"
         id="path42" />
      <path
         d="M 453.711,317.891 699.02,409.879"
         style="fill:#ffffff;fill-opacity:1;fill-rule:evenodd;stroke:none"
         id="path44" />
      <path
         d="M 453.711,317.891 699.02,409.879"
         style="fill:none;stroke:#000000;stroke-width:4;stroke-linecap:butt;stroke-linejoin:round;stroke-miterlimit:10;stroke-dasharray:none;stroke-opacity:1"
         id="path46" />
      <path
         d="M 453.711,317.891 699.02,593.871"
         style="fill:#ffffff;fill-opacity:1;fill-rule:evenodd;stroke:none"
         id="path48" />
      <path
         d="M 453.711,317.891 699.02,593.871"
         style="fill:none;stroke:#000000;stroke-width:4;stroke-linecap:butt;stroke-linejoin:round;stroke-miterlimit:10;stroke-dasharray:none;stroke-opacity:1"
         id="path50" />
      <path
         d="M 453.711,501.879 699.02,593.871"
         style="fill:#ffffff;fill-opacity:1;fill-rule:evenodd;stroke:none"
         id="path52" />
      <path
         d="M 453.711,501.879 699.02,593.871"
         style="fill:none;stroke:#000000;stroke-width:4;stroke-linecap:butt;stroke-linejoin:round;stroke-miterlimit:10;stroke-dasharray:none;stroke-opacity:1"
         id="path54" />
      <path
         d="m 453.711,501.879 245.309,-92"
         style="fill:#ffffff;fill-opacity:1;fill-rule:evenodd;stroke:none"
         id="path56" />
      <path
         d="m 453.711,501.879 245.309,-92"
         style="fill:none;stroke:#000000;stroke-width:4;stroke-linecap:butt;stroke-linejoin:round;stroke-miterlimit:10;stroke-dasharray:none;stroke-opacity:1"
         id="path58" />
      <path
         d="M 453.711,501.879 699.02,225.898"
         style="fill:#ffffff;fill-opacity:1;fill-rule:evenodd;stroke:none"
         id="path60" />
      <path
         d="M 453.711,501.879 699.02,225.898"
         style="fill:none;stroke:#000000;stroke-width:4;stroke-linecap:butt;stroke-linejoin:round;stroke-miterlimit:10;stroke-dasharray:none;stroke-opacity:1"
         id="path62" />
      <path
         d="m 208.441,593.871 245.27,91.949"
         style="fill:#ffffff;fill-opacity:1;fill-rule:evenodd;stroke:none"
         id="path64" />
      <path
         d="m 208.441,593.871 245.27,91.949"
         style="fill:none;stroke:#000000;stroke-width:4;stroke-linecap:butt;stroke-linejoin:round;stroke-miterlimit:10;stroke-dasharray:none;stroke-opacity:1"
         id="path66" />
      <path
         d="m 208.441,593.871 245.27,-91.992"
         style="fill:#ffffff;fill-opacity:1;fill-rule:evenodd;stroke:none"
         id="path68" />
      <path
         d="m 208.441,593.871 245.27,-91.992"
         style="fill:none;stroke:#000000;stroke-width:4;stroke-linecap:butt;stroke-linejoin:round;stroke-miterlimit:10;stroke-dasharray:none;stroke-opacity:1"
         id="path70" />
      <path
         d="m 208.441,593.871 245.27,-275.98"
         style="fill:#ffffff;fill-opacity:1;fill-rule:evenodd;stroke:none"
         id="path72" />
      <path
         d="m 208.441,593.871 245.27,-275.98"
         style="fill:none;stroke:#000000;stroke-width:4;stroke-linecap:butt;stroke-linejoin:round;stroke-miterlimit:10;stroke-dasharray:none;stroke-opacity:1"
         id="path74" />
      <path
         d="M 208.441,593.871 453.711,133.91"
         style="fill:#ffffff;fill-opacity:1;fill-rule:evenodd;stroke:none"
         id="path76" />
      <path
         d="M 208.441,593.871 453.711,133.91"
         style="fill:none;stroke:#000000;stroke-width:4;stroke-linecap:butt;stroke-linejoin:round;stroke-miterlimit:10;stroke-dasharray:none;stroke-opacity:1"
         id="path78" />
      <path
         d="M 208.441,409.879 453.711,685.82"
         style="fill:#ffffff;fill-opacity:1;fill-rule:evenodd;stroke:none"
         id="path80" />
      <path
         d="M 208.441,409.879 453.711,685.82"
         style="fill:none;stroke:#000000;stroke-width:4;stroke-linecap:butt;stroke-linejoin:round;stroke-miterlimit:10;stroke-dasharray:none;stroke-opacity:1"
         id="path82" />
      <path
         d="m 208.441,409.879 245.27,92"
         style="fill:#ffffff;fill-opacity:1;fill-rule:evenodd;stroke:none"
         id="path84" />
      <path
         d="m 208.441,409.879 245.27,92"
         style="fill:none;stroke:#000000;stroke-width:4;stroke-linecap:butt;stroke-linejoin:round;stroke-miterlimit:10;stroke-dasharray:none;stroke-opacity:1"
         id="path86" />
      <path
         d="m 208.441,409.879 245.27,-91.988"
         style="fill:#ffffff;fill-opacity:1;fill-rule:evenodd;stroke:none"
         id="path88" />
      <path
         d="m 208.441,409.879 245.27,-91.988"
         style="fill:none;stroke:#000000;stroke-width:4;stroke-linecap:butt;stroke-linejoin:round;stroke-miterlimit:10;stroke-dasharray:none;stroke-opacity:1"
         id="path90" />
      <path
         d="M 208.441,409.879 453.711,133.91"
         style="fill:#ffffff;fill-opacity:1;fill-rule:evenodd;stroke:none"
         id="path92" />
      <path
         d="M 208.441,409.879 453.711,133.91"
         style="fill:none;stroke:#000000;stroke-width:4;stroke-linecap:butt;stroke-linejoin:round;stroke-miterlimit:10;stroke-dasharray:none;stroke-opacity:1"
         id="path94" />
      <path
         d="M 208.441,225.898 453.711,685.82"
         style="fill:#ffffff;fill-opacity:1;fill-rule:evenodd;stroke:none"
         id="path96" />
      <path
         d="M 208.441,225.898 453.711,685.82"
         style="fill:none;stroke:#000000;stroke-width:4;stroke-linecap:butt;stroke-linejoin:round;stroke-miterlimit:10;stroke-dasharray:none;stroke-opacity:1"
         id="path98" />
      <path
         d="m 208.441,225.898 245.27,275.981"
         style="fill:#ffffff;fill-opacity:1;fill-rule:evenodd;stroke:none"
         id="path100" />
      <path
         d="m 208.441,225.898 245.27,275.981"
         style="fill:none;stroke:#000000;stroke-width:4;stroke-linecap:butt;stroke-linejoin:round;stroke-miterlimit:10;stroke-dasharray:none;stroke-opacity:1"
         id="path102" />
      <path
         d="m 208.441,225.898 245.27,91.993"
         style="fill:#ffffff;fill-opacity:1;fill-rule:evenodd;stroke:none"
         id="path104" />
      <path
         d="m 208.441,225.898 245.27,91.993"
         style="fill:none;stroke:#000000;stroke-width:4;stroke-linecap:butt;stroke-linejoin:round;stroke-miterlimit:10;stroke-dasharray:none;stroke-opacity:1"
         id="path106" />
      <path
         d="M 208.441,225.898 453.711,133.91"
         style="fill:#ffffff;fill-opacity:1;fill-rule:evenodd;stroke:none"
         id="path108" />
      <path
         d="M 208.441,225.898 453.711,133.91"
         style="fill:none;stroke:#000000;stroke-width:4;stroke-linecap:butt;stroke-linejoin:round;stroke-miterlimit:10;stroke-dasharray:none;stroke-opacity:1"
         id="path110" />
      <path
         d="m 269.73,409.879 c 0,33.871 -27.429,61.332 -61.289,61.332 -33.91,0 -61.332,-27.461 -61.332,-61.332 0,-33.859 27.422,-61.328 61.332,-61.328 33.86,0 61.289,27.469 61.289,61.328 z"
         style="fill:#ffffff;fill-opacity:1;fill-rule:evenodd;stroke:none"
         id="path112" />
      <path
         d="m 269.73,409.879 c 0,33.871 -27.429,61.332 -61.289,61.332 -33.91,0 -61.332,-27.461 -61.332,-61.332 0,-33.859 27.422,-61.328 61.332,-61.328 33.86,0 61.289,27.469 61.289,61.328 z"
         style="fill:none;stroke:#000000;stroke-width:4;stroke-linecap:butt;stroke-linejoin:round;stroke-miterlimit:10;stroke-dasharray:none;stroke-opacity:1"
         id="path114" />
      <path
         d="m 269.73,593.871 c 0,33.859 -27.429,61.289 -61.289,61.289 -33.91,0 -61.332,-27.43 -61.332,-61.289 0,-33.91 27.422,-61.332 61.332,-61.332 33.86,0 61.289,27.422 61.289,61.332 z"
         style="fill:#ffffff;fill-opacity:1;fill-rule:evenodd;stroke:none"
         id="path116" />
      <path
         d="m 269.73,593.871 c 0,33.859 -27.429,61.289 -61.289,61.289 -33.91,0 -61.332,-27.43 -61.332,-61.289 0,-33.91 27.422,-61.332 61.332,-61.332 33.86,0 61.289,27.422 61.289,61.332 z"
         style="fill:none;stroke:#000000;stroke-width:4;stroke-linecap:butt;stroke-linejoin:round;stroke-miterlimit:10;stroke-dasharray:none;stroke-opacity:1"
         id="path118" />
      <path
         d="m 269.73,225.898 c 0,33.872 -27.429,61.332 -61.289,61.332 -33.91,0 -61.332,-27.46 -61.332,-61.332 0,-33.867 27.422,-61.328 61.332,-61.328 33.86,0 61.289,27.461 61.289,61.328 z"
         style="fill:#ffffff;fill-opacity:1;fill-rule:evenodd;stroke:none"
         id="path120" />
      <path
         d="m 269.73,225.898 c 0,33.872 -27.429,61.332 -61.289,61.332 -33.91,0 -61.332,-27.46 -61.332,-61.332 0,-33.867 27.422,-61.328 61.332,-61.328 33.86,0 61.289,27.461 61.289,61.328 z"
         style="fill:none;stroke:#000000;stroke-width:4;stroke-linecap:butt;stroke-linejoin:round;stroke-miterlimit:10;stroke-dasharray:none;stroke-opacity:1"
         id="path122" />
      <path
         d="m 515.039,317.891 c 0,33.871 -27.461,61.328 -61.328,61.328 -33.871,0 -61.332,-27.457 -61.332,-61.328 0,-33.871 27.461,-61.332 61.332,-61.332 33.867,0 61.328,27.461 61.328,61.332 z"
         style="fill:#ffffff;fill-opacity:1;fill-rule:evenodd;stroke:none"
         id="path124" />
      <path
         d="m 515.039,317.891 c 0,33.871 -27.461,61.328 -61.328,61.328 -33.871,0 -61.332,-27.457 -61.332,-61.328 0,-33.871 27.461,-61.332 61.332,-61.332 33.867,0 61.328,27.461 61.328,61.332 z"
         style="fill:none;stroke:#000000;stroke-width:4;stroke-linecap:butt;stroke-linejoin:round;stroke-miterlimit:10;stroke-dasharray:none;stroke-opacity:1"
         id="path126" />
      <path
         d="m 515.039,501.879 c 0,33.859 -27.461,61.32 -61.328,61.32 -33.871,0 -61.332,-27.461 -61.332,-61.32 0,-33.867 27.461,-61.328 61.332,-61.328 33.867,0 61.328,27.461 61.328,61.328 z"
         style="fill:#ffffff;fill-opacity:1;fill-rule:evenodd;stroke:none"
         id="path128" />
      <path
         d="m 515.039,501.879 c 0,33.859 -27.461,61.32 -61.328,61.32 -33.871,0 -61.332,-27.461 -61.332,-61.32 0,-33.867 27.461,-61.328 61.332,-61.328 33.867,0 61.328,27.461 61.328,61.328 z"
         style="fill:none;stroke:#000000;stroke-width:4;stroke-linecap:butt;stroke-linejoin:round;stroke-miterlimit:10;stroke-dasharray:none;stroke-opacity:1"
         id="path130" />
      <path
         d="m 515.039,685.859 c 0,33.871 -27.461,61.289 -61.328,61.289 -33.871,0 -61.332,-27.418 -61.332,-61.289 0,-33.91 27.461,-61.328 61.332,-61.328 33.867,0 61.328,27.418 61.328,61.328 z"
         style="fill:#ffffff;fill-opacity:1;fill-rule:evenodd;stroke:none"
         id="path132" />
      <path
         d="m 515.039,685.859 c 0,33.871 -27.461,61.289 -61.328,61.289 -33.871,0 -61.332,-27.418 -61.332,-61.289 0,-33.91 27.461,-61.328 61.332,-61.328 33.867,0 61.328,27.418 61.328,61.328 z"
         style="fill:none;stroke:#000000;stroke-width:4;stroke-linecap:butt;stroke-linejoin:round;stroke-miterlimit:10;stroke-dasharray:none;stroke-opacity:1"
         id="path134" />
      <path
         d="m 515.039,133.91 c 0,33.86 -27.461,61.32 -61.328,61.32 -33.871,0 -61.332,-27.46 -61.332,-61.32 0,-33.871 27.461,-61.2889 61.332,-61.2889 33.867,0 61.328,27.4179 61.328,61.2889 z"
         style="fill:#ffffff;fill-opacity:1;fill-rule:evenodd;stroke:none"
         id="path136" />
      <path
         d="m 515.039,133.91 c 0,33.86 -27.461,61.32 -61.328,61.32 -33.871,0 -61.332,-27.46 -61.332,-61.32 0,-33.871 27.461,-61.2889 61.332,-61.2889 33.867,0 61.328,27.4179 61.328,61.2889 z"
         style="fill:none;stroke:#000000;stroke-width:4;stroke-linecap:butt;stroke-linejoin:round;stroke-miterlimit:10;stroke-dasharray:none;stroke-opacity:1"
         id="path138" />
      <path
         d="m 760.352,593.871 c 0,33.859 -27.461,61.289 -61.332,61.289 -33.86,0 -61.321,-27.43 -61.321,-61.289 0,-33.91 27.461,-61.332 61.321,-61.332 33.871,0 61.332,27.422 61.332,61.332 z"
         style="fill:#ffffff;fill-opacity:1;fill-rule:evenodd;stroke:none"
         id="path140" />
      <path
         d="m 760.352,593.871 c 0,33.859 -27.461,61.289 -61.332,61.289 -33.86,0 -61.321,-27.43 -61.321,-61.289 0,-33.91 27.461,-61.332 61.321,-61.332 33.871,0 61.332,27.422 61.332,61.332 z"
         style="fill:none;stroke:#000000;stroke-width:4;stroke-linecap:butt;stroke-linejoin:round;stroke-miterlimit:10;stroke-dasharray:none;stroke-opacity:1"
         id="path142" />
      <path
         d="m 760.352,409.879 c 0,33.871 -27.461,61.332 -61.332,61.332 -33.86,0 -61.321,-27.461 -61.321,-61.332 0,-33.859 27.461,-61.328 61.321,-61.328 33.871,0 61.332,27.469 61.332,61.328 z"
         style="fill:#ffffff;fill-opacity:1;fill-rule:evenodd;stroke:none"
         id="path144" />
      <path
         d="m 760.352,409.879 c 0,33.871 -27.461,61.332 -61.332,61.332 -33.86,0 -61.321,-27.461 -61.321,-61.332 0,-33.859 27.461,-61.328 61.321,-61.328 33.871,0 61.332,27.469 61.332,61.328 z"
         style="fill:none;stroke:#000000;stroke-width:4;stroke-linecap:butt;stroke-linejoin:round;stroke-miterlimit:10;stroke-dasharray:none;stroke-opacity:1"
         id="path146" />
      <path
         d="m 760.352,225.898 c 0,33.872 -27.461,61.332 -61.332,61.332 -33.86,0 -61.321,-27.46 -61.321,-61.332 0,-33.867 27.461,-61.328 61.321,-61.328 33.871,0 61.332,27.461 61.332,61.328 z"
         style="fill:#ffffff;fill-opacity:1;fill-rule:evenodd;stroke:none"
         id="path148" />
      <path
         d="m 760.352,225.898 c 0,33.872 -27.461,61.332 -61.332,61.332 -33.86,0 -61.321,-27.46 -61.321,-61.332 0,-33.867 27.461,-61.328 61.321,-61.328 33.871,0 61.332,27.461 61.332,61.328 z"
         style="fill:none;stroke:#000000;stroke-width:4;stroke-linecap:butt;stroke-linejoin:round;stroke-miterlimit:10;stroke-dasharray:none;stroke-opacity:1"
         id="path150" />
      <path
         d="M 760.352,593.871 H 944.301"
         style="fill:none;stroke:#000000;stroke-width:4;stroke-linecap:butt;stroke-linejoin:round;stroke-miterlimit:10;stroke-dasharray:none;stroke-opacity:1"
         id="path152" />
      <path
         d="m 944.301,593.871 -50,16.641 v -33.321 z"
         style="fill:#000000;fill-opacity:1;fill-rule:evenodd;stroke:none"
         id="path154" />
      <path
         d="m 944.301,593.871 -50,16.641 v -33.321 z"
         style="fill:none;stroke:#000000;stroke-width:4;stroke-linecap:butt;stroke-linejoin:round;stroke-miterlimit:10;stroke-dasharray:none;stroke-opacity:1"
         id="path156" />
      <path
         d="M 760.352,225.898 H 944.301"
         style="fill:none;stroke:#000000;stroke-width:4;stroke-linecap:butt;stroke-linejoin:round;stroke-miterlimit:10;stroke-dasharray:none;stroke-opacity:1"
         id="path158" />
      <path
         d="m 944.301,225.898 -50,16.641 v -33.277 z"
         style="fill:#000000;fill-opacity:1;fill-rule:evenodd;stroke:none"
         id="path160" />
      <path
         d="m 944.301,225.898 -50,16.641 v -33.277 z"
         style="fill:none;stroke:#000000;stroke-width:4;stroke-linecap:butt;stroke-linejoin:round;stroke-miterlimit:10;stroke-dasharray:none;stroke-opacity:1"
         id="path162" />
      <path
         d="M 55.1211,593.871 H 147.109"
         style="fill:none;stroke:#000000;stroke-width:4;stroke-linecap:butt;stroke-linejoin:round;stroke-miterlimit:10;stroke-dasharray:none;stroke-opacity:1"
         id="path164" />
      <path
         d="M 147.109,593.871 97.1094,610.512 V 577.191 Z"
         style="fill:#000000;fill-opacity:1;fill-rule:evenodd;stroke:none"
         id="path166" />
      <path
         d="M 147.109,593.871 97.1094,610.512 V 577.191 Z"
         style="fill:none;stroke:#000000;stroke-width:4;stroke-linecap:butt;stroke-linejoin:round;stroke-miterlimit:10;stroke-dasharray:none;stroke-opacity:1"
         id="path168" />
      <path
         d="M 55.1211,409.879 H 147.109"
         style="fill:none;stroke:#000000;stroke-width:4;stroke-linecap:butt;stroke-linejoin:round;stroke-miterlimit:10;stroke-dasharray:none;stroke-opacity:1"
         id="path170" />
      <path
         d="M 147.109,409.879 97.1094,426.52 v -33.282 z"
         style="fill:#000000;fill-opacity:1;fill-rule:evenodd;stroke:none"
         id="path172" />
      <path
         d="M 147.109,409.879 97.1094,426.52 v -33.282 z"
         style="fill:none;stroke:#000000;stroke-width:4;stroke-linecap:butt;stroke-linejoin:round;stroke-miterlimit:10;stroke-dasharray:none;stroke-opacity:1"
         id="path174" />
      <path
         d="M 55.1211,225.898 H 147.109"
         style="fill:none;stroke:#000000;stroke-width:4;stroke-linecap:butt;stroke-linejoin:round;stroke-miterlimit:10;stroke-dasharray:none;stroke-opacity:1"
         id="path176" />
      <path
         d="M 147.109,225.898 97.1094,242.539 V 209.262 Z"
         style="fill:#000000;fill-opacity:1;fill-rule:evenodd;stroke:none"
         id="path178" />
      <path
         d="M 147.109,225.898 97.1094,242.539 V 209.262 Z"
         style="fill:none;stroke:#000000;stroke-width:4;stroke-linecap:butt;stroke-linejoin:round;stroke-miterlimit:10;stroke-dasharray:none;stroke-opacity:1"
         id="path180" />
      <g
         id="g182"
         transform="scale(10)">
        <text
           xml:space="preserve"
           transform="matrix(1,0,0,-1,-0.182031,38.1789)"
           style="font-variant:normal;font-size:7.9701px;font-family:f-0;-inkscape-font-specification:f-0-0;writing-mode:lr-tb;fill:#000000;fill-opacity:1;fill-rule:nonzero;stroke:none"
           id="text186"><tspan
             x="0"
             y="0"
             id="tspan184">d</tspan></text>
        <text
           xml:space="preserve"
           transform="matrix(1,0,0,-1,84.526569,39.27148)"
           style="font-variant:normal;font-size:7.9701px;font-family:f-1;-inkscape-font-specification:f-1-0;writing-mode:lr-tb;fill:#000000;fill-opacity:1;fill-rule:nonzero;stroke:none"
           id="text190"><tspan
             x="0"
             y="0"
             id="tspan188">ˆ</tspan></text>
        <text
           xml:space="preserve"
           transform="matrix(1,0,0,-1,83.053519,37.16875)"
           style="font-variant:normal;font-size:7.9701px;font-family:f-0;-inkscape-font-specification:f-0-0;writing-mode:lr-tb;fill:#000000;fill-opacity:1;fill-rule:nonzero;stroke:none"
           id="text194"><tspan
             x="0"
             y="0"
             id="tspan192">d</tspan></text>
      </g>
      <path
         d="m 760.352,409.879 h 61.289"
         style="fill:none;stroke:#000000;stroke-width:4;stroke-linecap:butt;stroke-linejoin:round;stroke-miterlimit:10;stroke-dasharray:none;stroke-opacity:1"
         id="path196" />
      <path
         d="m 882.969,409.879 h 61.332"
         style="fill:none;stroke:#000000;stroke-width:4;stroke-linecap:butt;stroke-linejoin:round;stroke-miterlimit:10;stroke-dasharray:none;stroke-opacity:1"
         id="path198" />
      <path
         d="m 944.301,409.879 -50,16.641 v -33.282 z"
         style="fill:#000000;fill-opacity:1;fill-rule:evenodd;stroke:none"
         id="path200" />
      <path
         d="m 944.301,409.879 -50,16.641 v -33.282 z"
         style="fill:none;stroke:#000000;stroke-width:4;stroke-linecap:butt;stroke-linejoin:round;stroke-miterlimit:10;stroke-dasharray:none;stroke-opacity:1"
         id="path202" />
      <g
         id="g204"
         transform="scale(10)">
        <text
           xml:space="preserve"
           transform="matrix(1,0,0,-1,16.0863,79.0152)"
           style="font-variant:normal;font-size:7.9701px;font-family:f-1;-inkscape-font-specification:f-1-0;writing-mode:lr-tb;fill:#000000;fill-opacity:1;fill-rule:nonzero;stroke:none"
           id="text208"><tspan
             x="0 6.3362293 10.098117 14.800476 18.100098 22.33222 27.504688 33.840916 37.602806 40.663284 46.537113 50.769238 54.068855"
             y="0"
             sodipodi:role="line"
             id="tspan206">NeuralNetwork</tspan></text>
        <text
           xml:space="preserve"
           transform="matrix(1,0,0,-1,215.8513,39.9265)"
           style="font-variant:normal;font-size:7.9701px;font-family:f-2;-inkscape-font-specification:f-2-0;writing-mode:lr-tb;fill:#000000;fill-opacity:1;fill-rule:nonzero;stroke:none"
           id="text212"><tspan
             x="0"
             y="0"
             id="tspan210">L</tspan></text>
        <text
           xml:space="preserve"
           transform="matrix(1,0,0,-1,221.66966,39.9265)"
           style="font-variant:normal;font-size:7.9701px;font-family:f-1;-inkscape-font-specification:f-1-0;writing-mode:lr-tb;fill:#000000;fill-opacity:1;fill-rule:nonzero;stroke:none"
           id="text216"><tspan
             x="0"
             y="0"
             id="tspan214">(</tspan></text>
        <text
           xml:space="preserve"
           transform="matrix(1,0,0,-1,224.96146,39.9265)"
           style="font-variant:normal;font-size:7.9701px;font-family:f-0;-inkscape-font-specification:f-0-0;writing-mode:lr-tb;fill:#000000;fill-opacity:1;fill-rule:nonzero;stroke:none"
           id="text220"><tspan
             x="0"
             y="0"
             id="tspan218">g</tspan></text>
        <text
           xml:space="preserve"
           transform="matrix(1,0,0,-1,229.28138,39.9265)"
           style="font-variant:normal;font-size:7.9701px;font-family:f-1;-inkscape-font-specification:f-1-0;writing-mode:lr-tb;fill:#000000;fill-opacity:1;fill-rule:nonzero;stroke:none"
           id="text224"><tspan
             x="0"
             y="0"
             id="tspan222">)</tspan></text>
        <text
           xml:space="preserve"
           transform="matrix(1,0,0,-1,209.81728,47.45111)"
           style="font-variant:normal;font-size:7.9701px;font-family:f-0;-inkscape-font-specification:f-0-0;writing-mode:lr-tb;fill:#000000;fill-opacity:1;fill-rule:nonzero;stroke:none"
           id="text228"><tspan
             x="0"
             y="0"
             id="tspan226">g</tspan></text>
        <text
           xml:space="preserve"
           transform="matrix(1,0,0,-1,214.1333,50.26439)"
           style="font-variant:normal;font-size:5.9776px;font-family:f-3;-inkscape-font-specification:f-3-1;writing-mode:lr-tb;fill:#000000;fill-opacity:1;fill-rule:nonzero;stroke:none"
           id="text232"><tspan
             x="0"
             y="0"
             id="tspan230">∗</tspan></text>
        <text
           xml:space="preserve"
           transform="matrix(1,0,0,-1,122.1286,6.20109)"
           style="font-variant:normal;font-size:7.9701px;font-family:f-1;-inkscape-font-specification:f-1-0;writing-mode:lr-tb;fill:#000000;fill-opacity:1;fill-rule:nonzero;stroke:none"
           id="text242"><tspan
             x="0 5.993515 10.225638 13.748439 18.211695 22.914053 26.213675 30.445799 35.148155 39.38028 43.612404 47.844524 51.136177 53.487358 57.719479"
             y="0"
             sodipodi:role="line"
             id="tspan234">Backpropagation</tspan><tspan
             x="-4.7273402 1.3857267 5.6178498 10.081257 14.313287 18.075174 25.359766 30.875006 35.107128 38.40675 42.638874 49.692413 53.4543 56.745949 60.04557 62.396751"
             y="-71.664803"
             sodipodi:role="line"
             id="tspan236">ConvexParametric</tspan><tspan
             x="-7.4285102 -1.6740978 1.6255236 5.8576465 10.089769 13.389391 17.621513 24.675053 31.728592 34.079769 38.782131 45.835556 53.582493 58.045708 62.748066 66.509956"
             y="-62.200741"
             sodipodi:role="line"
             id="tspan238">ProgrammingModel</tspan><tspan
             x="-15.36367 -8.3101311 -5.958952 -1.256593 1.0945865 8.1481247 10.499305 14.261191"
             y="-42.701542"
             sodipodi:role="line"
             id="tspan240">minimize</tspan></text>
        <text
           xml:space="preserve"
           transform="matrix(1,0,0,-1,102.4993,41.36474)"
           style="font-variant:normal;font-size:5.9776px;font-family:f-4;-inkscape-font-specification:f-4-0;writing-mode:lr-tb;fill:#000000;fill-opacity:1;fill-rule:nonzero;stroke:none"
           id="text246"><tspan
             x="0"
             y="0"
             id="tspan244">g</tspan></text>
        <text
           xml:space="preserve"
           transform="matrix(1,0,0,-1,106.13211,40.1038)"
           style="font-variant:normal;font-size:4.9813px;font-family:f-5;-inkscape-font-specification:f-5-0;writing-mode:lr-tb;fill:#000000;fill-opacity:1;fill-rule:nonzero;stroke:none"
           id="text250"><tspan
             x="0 2.6550329"
             y="0"
             sodipodi:role="line"
             id="tspan248">it</tspan></text>
        <text
           xml:space="preserve"
           transform="matrix(1,0,0,-1,112.09617,41.36474)"
           style="font-variant:normal;font-size:5.9776px;font-family:f-4;-inkscape-font-specification:f-4-0;writing-mode:lr-tb;fill:#000000;fill-opacity:1;fill-rule:nonzero;stroke:none"
           id="text254"><tspan
             x="0 2.2655103"
             y="0"
             sodipodi:role="line"
             id="tspan252">,s</tspan></text>
        <text
           xml:space="preserve"
           transform="matrix(1,0,0,-1,117.85906,44.2538)"
           style="font-variant:normal;font-size:4.9813px;font-family:f-6;-inkscape-font-specification:f-6-0;writing-mode:lr-tb;fill:#000000;fill-opacity:1;fill-rule:nonzero;stroke:none"
           id="text258"><tspan
             x="0"
             y="0"
             id="tspan256">+</tspan></text>
        <text
           xml:space="preserve"
           transform="matrix(1,0,0,-1,117.85906,39.19755)"
           style="font-variant:normal;font-size:4.9813px;font-family:f-5;-inkscape-font-specification:f-5-0;writing-mode:lr-tb;fill:#000000;fill-opacity:1;fill-rule:nonzero;stroke:none"
           id="text262"><tspan
             x="0"
             y="0"
             id="tspan260">t</tspan></text>
        <text
           xml:space="preserve"
           transform="matrix(1,0,0,-1,123.47703,41.36474)"
           style="font-variant:normal;font-size:5.9776px;font-family:f-4;-inkscape-font-specification:f-4-0;writing-mode:lr-tb;fill:#000000;fill-opacity:1;fill-rule:nonzero;stroke:none"
           id="text266"><tspan
             x="0 2.2655103"
             y="0"
             sodipodi:role="line"
             id="tspan264">,s</tspan></text>
        <text
           xml:space="preserve"
           transform="matrix(1,0,0,-1,129.23992,44.2538)"
           style="font-variant:normal;font-size:4.9813px;font-family:f-7;-inkscape-font-specification:f-7-1;writing-mode:lr-tb;fill:#000000;fill-opacity:1;fill-rule:nonzero;stroke:none"
           id="text270"><tspan
             x="0"
             y="0"
             id="tspan268">−</tspan></text>
        <text
           xml:space="preserve"
           transform="matrix(1,0,0,-1,129.23992,39.19755)"
           style="font-variant:normal;font-size:4.9813px;font-family:f-5;-inkscape-font-specification:f-5-0;writing-mode:lr-tb;fill:#000000;fill-opacity:1;fill-rule:nonzero;stroke:none"
           id="text274"><tspan
             x="0"
             y="0"
             id="tspan272">t</tspan></text>
        <text
           xml:space="preserve"
           transform="matrix(1,0,0,-1,135.13523,41.36474)"
           style="font-variant:normal;font-size:5.9776px;font-family:f-3;-inkscape-font-specification:f-3-1;writing-mode:lr-tb;fill:#000000;fill-opacity:1;fill-rule:nonzero;stroke:none"
           id="text278"><tspan
             x="0"
             y="0"
             id="tspan276">∈</tspan></text>
        <text
           xml:space="preserve"
           transform="matrix(1,0,0,-1,140.11453,41.36474)"
           style="font-variant:normal;font-size:5.9776px;font-family:f-8;-inkscape-font-specification:f-8-0;writing-mode:lr-tb;fill:#000000;fill-opacity:1;fill-rule:nonzero;stroke:none"
           id="text282"><tspan
             x="0"
             y="0"
             id="tspan280">R</tspan></text>
        <text
           xml:space="preserve"
           transform="matrix(1,0,0,-1,156.37703,50.91786)"
           style="font-variant:normal;font-size:7.9701px;font-family:f-1;-inkscape-font-specification:f-1-0;writing-mode:lr-tb;fill:#000000;fill-opacity:1;fill-rule:nonzero;stroke:none"
           id="text286"><tspan
             x="0"
             y="0"
             id="tspan284">ˆ</tspan></text>
        <text
           xml:space="preserve"
           transform="matrix(1,0,0,-1,154.39617,48.90263)"
           style="font-variant:normal;font-size:7.9701px;font-family:f-0;-inkscape-font-specification:f-0-0;writing-mode:lr-tb;fill:#000000;fill-opacity:1;fill-rule:nonzero;stroke:none"
           id="text290"><tspan
             x="0"
             y="0"
             id="tspan288">J</tspan></text>
        <text
           xml:space="preserve"
           transform="matrix(1,0,0,-1,159.76805,48.90263)"
           style="font-variant:normal;font-size:7.9701px;font-family:f-1;-inkscape-font-specification:f-1-0;writing-mode:lr-tb;fill:#000000;fill-opacity:1;fill-rule:nonzero;stroke:none"
           id="text294"><tspan
             x="0"
             y="0"
             id="tspan292">(</tspan></text>
        <text
           xml:space="preserve"
           transform="matrix(1,0,0,-1,163.05985,48.90263)"
           style="font-variant:normal;font-size:7.9701px;font-family:f-0;-inkscape-font-specification:f-0-0;writing-mode:lr-tb;fill:#000000;fill-opacity:1;fill-rule:nonzero;stroke:none"
           id="text298"><tspan
             x="0 4.3117175 8.0734291"
             y="0"
             sodipodi:role="line"
             id="tspan296">g,s</tspan></text>
        <text
           xml:space="preserve"
           transform="matrix(1,0,0,-1,175.05905,51.71591)"
           style="font-variant:normal;font-size:5.9776px;font-family:f-9;-inkscape-font-specification:f-9-0;writing-mode:lr-tb;fill:#000000;fill-opacity:1;fill-rule:nonzero;stroke:none"
           id="text302"><tspan
             x="0"
             y="0"
             id="tspan300">+</tspan></text>
        <text
           xml:space="preserve"
           transform="matrix(1,0,0,-1,181.14694,48.90263)"
           style="font-variant:normal;font-size:7.9701px;font-family:f-0;-inkscape-font-specification:f-0-0;writing-mode:lr-tb;fill:#000000;fill-opacity:1;fill-rule:nonzero;stroke:none"
           id="text306"><tspan
             x="0 3.7617118"
             y="0"
             sodipodi:role="line"
             id="tspan304">,s</tspan></text>
        <text
           xml:space="preserve"
           transform="matrix(1,0,0,-1,188.82702,51.71591)"
           style="font-variant:normal;font-size:5.9776px;font-family:f-3;-inkscape-font-specification:f-3-1;writing-mode:lr-tb;fill:#000000;fill-opacity:1;fill-rule:nonzero;stroke:none"
           id="text310"><tspan
             x="0"
             y="0"
             id="tspan308">−</tspan></text>
        <text
           xml:space="preserve"
           transform="matrix(1,0,0,-1,195.08093,48.90263)"
           style="font-variant:normal;font-size:7.9701px;font-family:f-1;-inkscape-font-specification:f-1-0;writing-mode:lr-tb;fill:#000000;fill-opacity:1;fill-rule:nonzero;stroke:none"
           id="text316"><tspan
             x="0"
             y="0"
             id="tspan312">)</tspan><tspan
             x="-92.581596 -89.242126 -84.539772 -79.367149 -76.784836 -73.022949 -69.261063 -63.14801 -59.856358 -55.624233"
             y="17.3328"
             sodipodi:role="line"
             id="tspan314">subjectto:</tspan></text>
        <text
           xml:space="preserve"
           transform="matrix(1,0,0,-1,154.39273,31.56983)"
           style="font-variant:normal;font-size:7.9701px;font-family:f-0;-inkscape-font-specification:f-0-0;writing-mode:lr-tb;fill:#000000;fill-opacity:1;fill-rule:nonzero;stroke:none"
           id="text320"><tspan
             x="0 4.3117175 8.0734291"
             y="0"
             sodipodi:role="line"
             id="tspan318">g,s</tspan></text>
        <text
           xml:space="preserve"
           transform="matrix(1,0,0,-1,166.39113,34.38272)"
           style="font-variant:normal;font-size:5.9776px;font-family:f-9;-inkscape-font-specification:f-9-0;writing-mode:lr-tb;fill:#000000;fill-opacity:1;fill-rule:nonzero;stroke:none"
           id="text324"><tspan
             x="0"
             y="0"
             id="tspan322">+</tspan></text>
        <text
           xml:space="preserve"
           transform="matrix(1,0,0,-1,172.47902,31.56983)"
           style="font-variant:normal;font-size:7.9701px;font-family:f-0;-inkscape-font-specification:f-0-0;writing-mode:lr-tb;fill:#000000;fill-opacity:1;fill-rule:nonzero;stroke:none"
           id="text328"><tspan
             x="0 3.7617118"
             y="0"
             sodipodi:role="line"
             id="tspan326">,s</tspan></text>
        <text
           xml:space="preserve"
           transform="matrix(1,0,0,-1,180.1591,34.38272)"
           style="font-variant:normal;font-size:5.9776px;font-family:f-3;-inkscape-font-specification:f-3-1;writing-mode:lr-tb;fill:#000000;fill-opacity:1;fill-rule:nonzero;stroke:none"
           id="text332"><tspan
             x="0"
             y="0"
             id="tspan330">−</tspan></text>
        <text
           xml:space="preserve"
           transform="matrix(1,0,0,-1,188.76613,31.56983)"
           style="font-variant:normal;font-size:7.9701px;font-family:f-2;-inkscape-font-specification:f-2-1;writing-mode:lr-tb;fill:#000000;fill-opacity:1;fill-rule:nonzero;stroke:none"
           id="text336"><tspan
             x="0"
             y="0"
             id="tspan334">∈</tspan></text>
        <text
           xml:space="preserve"
           transform="matrix(1,0,0,-1,196.76027,31.56983)"
           style="font-variant:normal;font-size:7.9701px;font-family:f-2;-inkscape-font-specification:f-2-0;writing-mode:lr-tb;fill:#000000;fill-opacity:1;fill-rule:nonzero;stroke:none"
           id="text340"><tspan
             x="0"
             y="0"
             id="tspan338">C</tspan></text>
        <text
           xml:space="preserve"
           transform="matrix(1,0,0,-1,202.50402,30.16358)"
           style="font-variant:normal;font-size:5.9776px;font-family:f-9;-inkscape-font-specification:f-9-0;writing-mode:lr-tb;fill:#000000;fill-opacity:1;fill-rule:nonzero;stroke:none"
           id="text344"><tspan
             x="0"
             y="0"
             id="tspan342">ˆ</tspan></text>
        <text
           xml:space="preserve"
           transform="matrix(1,0,0,-1,201.24816,28.58663)"
           style="font-variant:normal;font-size:5.9776px;font-family:f-4;-inkscape-font-specification:f-4-0;writing-mode:lr-tb;fill:#000000;fill-opacity:1;fill-rule:nonzero;stroke:none"
           id="text348"><tspan
             x="0"
             y="0"
             id="tspan346">d</tspan></text>
      </g>
      <path
         d="m 2070,409.301 h 80"
         style="fill:none;stroke:#000000;stroke-width:4;stroke-linecap:butt;stroke-linejoin:round;stroke-miterlimit:10;stroke-dasharray:none;stroke-opacity:1"
         id="path350" />
      <path
         d="m 2150,409.301 -50,16.64 V 392.66 Z"
         style="fill:#000000;fill-opacity:1;fill-rule:evenodd;stroke:none"
         id="path352" />
      <path
         d="m 2150,409.301 -50,16.64 V 392.66 Z"
         style="fill:none;stroke:#000000;stroke-width:4;stroke-linecap:butt;stroke-linejoin:round;stroke-miterlimit:10;stroke-dasharray:none;stroke-opacity:1"
         id="path354" />
      <path
         d="M 2230,320 V 0 H 470"
         style="fill:none;stroke:#000000;stroke-width:4;stroke-linecap:butt;stroke-linejoin:round;stroke-miterlimit:10;stroke-dasharray:none;stroke-opacity:1"
         id="path356" />
      <path
         d="M 470,0 H 453.871"
         style="fill:none;stroke:#000000;stroke-width:4;stroke-linecap:butt;stroke-linejoin:round;stroke-miterlimit:10;stroke-dasharray:none;stroke-opacity:1"
         id="path358" />
      <path
         d="m 454.301,-0.308594 0.23,72.378894"
         style="fill:#ffffff;fill-opacity:1;fill-rule:evenodd;stroke:none"
         id="path360" />
      <path
         d="m 454.301,-0.308594 0.23,72.378894"
         style="fill:none;stroke:#000000;stroke-width:4;stroke-linecap:butt;stroke-linejoin:round;stroke-miterlimit:10;stroke-dasharray:none;stroke-opacity:1"
         id="path362" />
      <path
         d="M 454.531,72.0703 437.699,22.1484 471.02,22.0313 Z"
         style="fill:#000000;fill-opacity:1;fill-rule:evenodd;stroke:none"
         id="path364" />
      <path
         d="M 454.531,72.0703 437.699,22.1484 471.02,22.0313 Z"
         style="fill:none;stroke:#000000;stroke-width:4;stroke-linecap:butt;stroke-linejoin:round;stroke-miterlimit:10;stroke-dasharray:none;stroke-opacity:1"
         id="path366" />
      <path
         d="m 510,0 h -55.699 l 0.039,20.3086"
         style="fill:none;stroke:#000000;stroke-width:4;stroke-linecap:butt;stroke-linejoin:round;stroke-miterlimit:10;stroke-dasharray:none;stroke-opacity:1"
         id="path368" />
      <path
         d="M 2230,320 V 0 L 454.301,-0.308594 454.41,35.8984"
         style="fill:none;stroke:#000000;stroke-width:8;stroke-linecap:butt;stroke-linejoin:round;stroke-miterlimit:10;stroke-dasharray:none;stroke-opacity:1"
         id="path370" />
    </g>
  </g>
</svg>
